<svg width="203" height="29" viewBox="0 0 203 29" fill="none" xmlns="http://www.w3.org/2000/svg">
<path d="M117.678 23.3922C117.678 24.5942 117.212 25.6992 116.282 26.7074C115.364 27.7026 114.007 28.2002 112.21 28.2002C110.879 28.2002 109.877 27.9094 109.205 27.3277C108.546 26.7332 108.217 26.0999 108.217 25.4278C108.217 25.0659 108.314 24.7557 108.507 24.4972C108.714 24.2387 108.973 24.1095 109.283 24.1095C109.981 24.1095 110.33 24.4778 110.33 25.2145C110.33 25.3826 110.291 25.6217 110.213 25.9319C110.162 26.074 110.136 26.1839 110.136 26.2614C110.136 26.5716 110.336 26.8431 110.737 27.0757C111.138 27.2954 111.616 27.4053 112.172 27.4053C113.038 27.4053 113.826 27.1339 114.537 26.591C115.248 26.0353 115.603 25.2727 115.603 24.3033C115.603 23.4632 115.106 22.1385 114.11 20.329C112.947 18.2352 112.365 16.7036 112.365 15.7342C112.365 14.4935 112.857 13.4465 113.839 12.5935C114.821 11.7405 115.939 11.314 117.193 11.314C118.111 11.314 118.892 11.5466 119.539 12.0119C120.198 12.4772 120.527 12.9748 120.527 13.5047C120.527 14.1897 120.243 14.5322 119.674 14.5322C119.248 14.5322 118.938 14.1509 118.744 13.3884C118.537 12.5483 117.975 12.1282 117.057 12.1282C116.32 12.1282 115.681 12.3286 115.138 12.7292C114.595 13.1299 114.324 13.6533 114.324 14.2996C114.324 15.1785 114.757 16.3869 115.622 17.925C116.437 19.3209 116.98 20.3871 117.251 21.1239C117.535 21.8606 117.678 22.6167 117.678 23.3922Z" fill="black"/>
<path d="M99.2791 16.471H98.4261C98.9689 15.0234 99.6475 13.7891 100.462 12.768C101.289 11.747 102.103 11.2365 102.905 11.2365C103.46 11.2365 103.874 11.4626 104.145 11.915C104.417 12.3544 104.552 13.0265 104.552 13.9313C104.552 15.0557 104.262 16.6584 103.68 18.7393C103.758 18.61 103.971 18.1447 104.32 17.3434C105.276 15.185 106.116 13.6275 106.84 12.6711C107.564 11.7147 108.288 11.2365 109.011 11.2365C109.464 11.2365 109.826 11.3786 110.097 11.663C110.369 11.9473 110.504 12.2898 110.504 12.6905C110.504 13.0782 110.388 13.3949 110.155 13.6405C109.936 13.886 109.671 14.0088 109.36 14.0088C109.011 14.0088 108.656 13.7956 108.294 13.369C108.152 13.201 108.01 13.117 107.868 13.117C107.221 13.117 106.226 14.6744 104.882 17.7893C103.538 20.8912 102.452 23.8122 101.625 26.5523L101.198 27.9482H98.872L101.955 17.673C102.536 15.7084 102.827 14.3772 102.827 13.6792C102.827 13.3044 102.775 13.0265 102.672 12.8456C102.581 12.6646 102.439 12.5742 102.245 12.5742C101.819 12.5742 101.282 13.033 100.636 13.9506C100.003 14.8683 99.5506 15.7084 99.2791 16.471Z" fill="black"/>
<path d="M95.3048 22.7136H96.2354C94.5939 26.3713 92.4872 28.2002 89.9152 28.2002C88.8553 28.2002 87.9894 27.8318 87.3173 27.0951C86.6581 26.3455 86.3285 25.3374 86.3285 24.0707C86.3285 22.4681 86.7551 20.6586 87.6081 18.6423C88.4741 16.6261 89.6954 14.8877 91.2723 13.4272C92.862 11.9667 94.245 11.2365 95.4211 11.2365C96.1449 11.2365 96.6942 11.4691 97.069 11.9344C97.4438 12.3868 97.6312 12.9554 97.6312 13.6405C97.6312 15.0363 96.9333 16.3805 95.5374 17.673C94.1416 18.9525 92.0477 20.1868 89.256 21.3759C88.8941 22.5004 88.7132 23.5667 88.7132 24.5748C88.7132 25.402 88.8747 26.0224 89.1978 26.436C89.521 26.8496 89.9992 27.0564 90.6325 27.0564C92.4032 27.0564 93.9606 25.6088 95.3048 22.7136ZM89.5468 20.3872C91.2141 19.6375 92.7134 18.6036 94.0446 17.2852C95.3759 15.9669 96.0415 14.7714 96.0415 13.6986C96.0415 13.2075 95.9381 12.8456 95.7313 12.6129C95.5374 12.3674 95.2402 12.2446 94.8395 12.2446C94.064 12.2446 93.1464 13.0007 92.0865 14.5129C91.0396 16.0121 90.193 17.9703 89.5468 20.3872Z" fill="black"/>
<path d="M83.847 24.1289H84.7969C84.2153 25.1887 83.4786 26.1322 82.5868 26.9594C81.7079 27.7866 80.9001 28.2002 80.1634 28.2002C79.4784 28.2002 78.9614 27.9934 78.6124 27.5798C78.2635 27.1662 78.089 26.5522 78.089 25.738C78.089 25.3632 78.1213 25.0207 78.1859 24.7105C76.3506 27.0369 74.651 28.2002 73.0871 28.2002C72.2082 28.2002 71.4586 27.8447 70.8382 27.1339C70.2178 26.423 69.9076 25.3955 69.9076 24.0513C69.9076 22.1772 70.4246 20.1674 71.4586 18.0219C72.4926 15.8635 73.7721 14.1962 75.2972 13.02C76.8224 11.8309 78.1472 11.2364 79.2716 11.2364C79.8532 11.2364 80.3444 11.3721 80.745 11.6435C81.1586 11.915 81.4882 12.3221 81.7338 12.8649L84.099 5.05191C84.3834 4.12133 84.5255 3.5591 84.5255 3.36523C84.5255 3.05504 84.4351 2.83532 84.2541 2.70607C84.0861 2.57682 83.6596 2.5122 82.9746 2.5122H82.4317L82.6837 1.69794C84.5578 1.69794 86.0506 1.46529 87.1622 1H87.6469L81.443 21.4147C80.6804 23.935 80.2991 25.4213 80.2991 25.8737C80.2991 26.1968 80.3573 26.4424 80.4736 26.6104C80.6029 26.7655 80.7838 26.8431 81.0165 26.8431C81.4042 26.8431 81.8307 26.6169 82.296 26.1645C82.7742 25.7121 83.2912 25.0336 83.847 24.1289ZM72.1371 24.9431C72.1371 25.6669 72.2599 26.2162 72.5055 26.591C72.764 26.9529 73.1388 27.1339 73.63 27.1339C74.4959 27.1339 75.4976 26.5329 76.635 25.3309C77.7723 24.1159 78.8192 22.1255 79.7757 19.3596C80.7321 16.5808 81.2103 14.823 81.2103 14.0863C81.2103 13.6081 81.0488 13.1751 80.7256 12.7874C80.4025 12.3996 79.976 12.2058 79.4461 12.2058C78.606 12.2058 77.7206 12.7034 76.7901 13.6986C75.8724 14.6809 74.8643 16.3934 73.7657 18.8362C72.68 21.266 72.1371 23.3017 72.1371 24.9431Z" fill="black"/>
<path d="M67.271 24.0126H68.2597C67.4842 25.4085 66.6894 26.4554 65.8751 27.1533C65.0738 27.8512 64.253 28.2002 63.4129 28.2002C62.8313 28.2002 62.3273 28.0193 61.9007 27.6574C61.4871 27.3084 61.2803 26.7849 61.2803 26.087C61.2803 25.5054 61.5776 24.3551 62.1722 22.6361L64.2466 16.723C64.8023 15.1074 65.0802 14.0605 65.0802 13.5823C65.0802 13.1558 64.9833 12.8391 64.7894 12.6323C64.6085 12.4255 64.3241 12.3221 63.9364 12.3221C62.9541 12.3221 61.6681 13.4789 60.0783 15.7924C58.5015 18.093 57.1444 21.111 56.007 24.8462L55.0571 27.9482H52.6918L56.104 16.9363C56.7244 14.9071 57.0346 13.7439 57.0346 13.4466C57.0346 13.2269 56.9958 13.0653 56.9182 12.9619C56.8407 12.8585 56.7179 12.8068 56.5499 12.8068C55.7873 12.8068 54.8826 13.7503 53.8357 15.6373H52.9439C54.5595 12.7034 56.0911 11.2365 57.5386 11.2365C58.0427 11.2365 58.4175 11.3915 58.6631 11.7017C58.9216 11.999 59.0508 12.4578 59.0508 13.0782C59.0508 14.1898 58.6178 15.9088 57.7519 18.2352C60.0913 13.5694 62.366 11.2365 64.5762 11.2365C65.287 11.2365 65.9074 11.4756 66.4373 11.9538C66.9672 12.4191 67.2322 13.1041 67.2322 14.0088C67.2322 14.5904 66.9672 15.6761 66.4373 17.2659L64.3629 23.4503C63.8071 25.1176 63.5293 26.0482 63.5293 26.2421C63.5293 26.4877 63.5874 26.6751 63.7037 26.8043C63.833 26.9206 64.0139 26.9788 64.2466 26.9788C64.686 26.9788 65.1578 26.7332 65.6618 26.2421C66.1659 25.738 66.7023 24.9949 67.271 24.0126Z" fill="black"/>
<path d="M50.4236 23.6636H51.2378C50.1392 26.688 48.6529 28.2002 46.7788 28.2002C46.1455 28.2002 45.6672 28.0257 45.3441 27.6767C45.0339 27.3278 44.8788 26.8043 44.8788 26.1064C44.8788 25.1241 45.2278 23.5537 45.9257 21.3953C43.6639 25.9319 41.4279 28.2002 39.2178 28.2002C38.4035 28.2002 37.7638 27.9482 37.2985 27.4441C36.8332 26.94 36.6005 26.3132 36.6005 25.5635C36.6005 24.8268 36.8913 23.6054 37.4729 21.8994L39.8576 14.9394C40.2065 13.9054 40.381 13.285 40.381 13.0782C40.381 12.7422 40.213 12.5742 39.877 12.5742C39.0627 12.5742 38.1709 13.6663 37.2015 15.8506H36.2709C36.7879 14.4935 37.4665 13.3884 38.3066 12.5354C39.1467 11.6694 39.9739 11.2365 40.7881 11.2365C41.2922 11.2365 41.7187 11.398 42.0677 11.7211C42.4296 12.0313 42.6105 12.5031 42.6105 13.1364C42.6105 13.5888 42.3844 14.4935 41.932 15.8506L39.4892 23.0238C39.0239 24.4197 38.7913 25.3374 38.7913 25.7768C38.7913 26.1775 38.8817 26.4812 39.0627 26.688C39.2436 26.8948 39.5086 26.9982 39.8576 26.9982C40.9949 26.9982 42.3456 25.7897 43.9095 23.3728C45.4734 20.9559 46.9726 17.3628 48.4073 12.5936L48.7369 11.4885H51.0633L47.6706 22.6167C47.1277 24.4262 46.8563 25.5183 46.8563 25.8931C46.8563 26.2162 46.9209 26.4618 47.0502 26.6298C47.1794 26.7849 47.3733 26.8625 47.6318 26.8625C48.6141 26.8625 49.5447 25.7962 50.4236 23.6636Z" fill="black"/>
<path d="M21.7306 22.5585C21.7306 21.0076 22.0925 19.3209 22.8163 17.4985C23.5401 15.6632 24.574 14.1768 25.9182 13.0394C27.2624 11.9021 28.5678 11.3334 29.8344 11.3334C30.9847 11.3334 31.9282 11.8245 32.6649 12.8068C33.4146 13.7762 33.7894 15.0945 33.7894 16.7618C33.7894 18.778 33.3758 20.6909 32.5486 22.5004C31.7214 24.3098 30.681 25.6992 29.4273 26.6686C28.1865 27.625 26.9651 28.1033 25.7631 28.1033C24.6904 28.1033 23.7469 27.6897 22.9326 26.8625C22.1313 26.0353 21.7306 24.6006 21.7306 22.5585ZM23.805 24.788C23.805 25.486 23.986 26.0805 24.3479 26.5717C24.7098 27.0628 25.2074 27.3084 25.8407 27.3084C27.5726 27.3084 28.9943 25.6669 30.1058 22.384C31.2303 19.1012 31.7925 16.5938 31.7925 14.8618C31.7925 13.97 31.618 13.3044 31.2691 12.865C30.933 12.4126 30.4225 12.1864 29.7375 12.1864C28.1219 12.1864 26.726 13.7115 25.5499 16.7618C24.3866 19.7991 23.805 22.4745 23.805 24.788Z" fill="black"/>
<path d="M26.4998 1.36841L26.6355 7.30087H25.7825C25.5111 5.82745 25.0523 4.69007 24.406 3.88874C23.7727 3.0874 23.1588 2.61565 22.5642 2.47348C21.9826 2.3313 20.8582 2.26022 19.1909 2.26022H14.9451L11.6881 13.6211H13.7625C15.9726 13.6211 17.5559 13.2333 18.5123 12.4579C19.4817 11.6824 20.1925 10.6225 20.6449 9.27836H21.5561L18.5123 19.9025H17.5817C17.8015 19.1012 17.9113 18.3257 17.9113 17.5761C17.9113 16.6842 17.7368 16.0057 17.3879 15.5404C17.0389 15.0622 16.5995 14.7714 16.0695 14.668C15.5396 14.5646 14.6543 14.5129 13.4135 14.5129H11.436L9.10956 22.6167C8.76059 23.8446 8.58611 24.6071 8.58611 24.9044C8.58611 25.5506 8.86399 26.0224 9.41976 26.3197C9.97552 26.6169 10.6088 26.7656 11.3197 26.7656H11.9595L11.7074 27.6574H0.79248L1.0639 26.7656H1.58735C2.38869 26.7656 3.06078 26.6234 3.60362 26.339C4.15938 26.0418 4.5342 25.7057 4.72807 25.3309C4.93487 24.9432 5.21921 24.1031 5.5811 22.8106L10.3697 6.07948C10.7316 4.81286 10.9126 4.01152 10.9126 3.67548C10.9126 2.73197 10.0725 2.26022 8.39224 2.26022H7.83001L8.08205 1.36841H26.4998Z" fill="black"/>
<path d="M195.703 28.1821C194.895 28.1821 194.11 28.083 193.347 27.8848C192.585 27.6789 191.887 27.374 191.254 26.9699C190.622 26.5659 190.099 26.0627 189.688 25.4604C189.276 24.8581 189.025 24.153 188.933 23.3448H191.941C192.055 23.8937 192.287 24.355 192.638 24.7285C192.996 25.1021 193.435 25.388 193.953 25.5862C194.479 25.7768 195.059 25.8721 195.691 25.8721C196.362 25.8721 196.968 25.7844 197.51 25.6091C198.051 25.4261 198.482 25.1669 198.802 24.8315C199.122 24.4884 199.282 24.0653 199.282 23.5621C199.282 23.1199 199.164 22.7464 198.928 22.4414C198.691 22.1365 198.36 21.8887 197.933 21.6981C197.514 21.4999 197.022 21.3436 196.458 21.2293L193.462 20.5774C192.226 20.3335 191.247 19.8456 190.523 19.1137C189.806 18.3818 189.44 17.406 189.425 16.1862C189.417 15.1799 189.684 14.3031 190.225 13.556C190.767 12.8089 191.506 12.2333 192.444 11.8293C193.381 11.4176 194.441 11.2117 195.623 11.2117C197.01 11.2117 198.177 11.4366 199.122 11.8864C200.067 12.3286 200.784 12.9271 201.272 13.6818C201.768 14.4289 202.019 15.2523 202.027 16.1519H199.088C199.027 15.5115 198.836 15.0007 198.516 14.6195C198.203 14.2383 197.799 13.9677 197.304 13.8076C196.816 13.6399 196.267 13.556 195.657 13.556C195.207 13.556 194.788 13.6094 194.399 13.7161C194.01 13.8228 193.671 13.9753 193.381 14.1735C193.099 14.3718 192.878 14.6157 192.718 14.9054C192.558 15.1875 192.478 15.5077 192.478 15.866C192.478 16.3844 192.653 16.8075 193.004 17.1353C193.355 17.4555 194.003 17.7262 194.948 17.9473L197.887 18.5877C198.84 18.7782 199.602 19.0603 200.174 19.4339C200.746 19.8074 201.177 20.2306 201.466 20.7032C201.764 21.1683 201.962 21.6486 202.061 22.1441C202.168 22.6396 202.221 23.1047 202.221 23.5392C202.221 24.4083 201.951 25.1936 201.409 25.895C200.876 26.5963 200.121 27.1529 199.145 27.5646C198.177 27.9762 197.029 28.1821 195.703 28.1821Z" fill="black"/>
<path d="M175.159 27.9535V11.4177H186.194L186.172 13.8992H178.087V18.4048H185.211V20.8406H178.064V25.4376L186.343 25.4491V27.9535H175.159Z" fill="black"/>
<path d="M159.746 14.025V11.4177H172.714V14.025H167.774V27.9535H164.858V14.025H159.746Z" fill="black"/>
<path d="M150.59 28.1821C149.058 28.1821 147.731 27.8467 146.611 27.1758C145.498 26.4973 144.636 25.5291 144.026 24.2712C143.416 23.0056 143.111 21.4885 143.111 19.7198C143.111 17.9435 143.416 16.4188 144.026 15.1456C144.644 13.8724 145.513 12.8966 146.634 12.2181C147.754 11.532 149.073 11.1889 150.59 11.1889C152.092 11.1889 153.4 11.5282 154.513 12.2067C155.626 12.8852 156.483 13.861 157.086 15.1342C157.696 16.4073 158 17.9359 158 19.7198C158 21.4809 157.699 22.9942 157.097 24.2597C156.502 25.5253 155.649 26.4973 154.535 27.1758C153.422 27.8467 152.107 28.1821 150.59 28.1821ZM150.59 25.7578C151.467 25.7578 152.222 25.5519 152.854 25.1403C153.495 24.7286 153.983 24.0806 154.318 23.1962C154.661 22.3119 154.833 21.1645 154.833 19.7541C154.833 18.3209 154.661 17.1544 154.318 16.2549C153.975 15.3476 153.483 14.6806 152.843 14.2536C152.21 13.8267 151.459 13.6132 150.59 13.6132C149.713 13.6132 148.955 13.8305 148.315 14.2651C147.674 14.692 147.179 15.3591 146.828 16.2663C146.477 17.1659 146.302 18.3285 146.302 19.7541C146.302 21.1645 146.477 22.3119 146.828 23.1962C147.179 24.0806 147.674 24.7286 148.315 25.1403C148.955 25.5519 149.713 25.7578 150.59 25.7578Z" fill="black"/>
<path d="M137.086 11.4177H139.99V27.9535H137.383L129.172 15.9919V27.9535H126.268V11.4177H129.115L137.086 23.0362V11.4177Z" fill="black"/>
</svg>
